<svg width="30" height="29" viewBox="0 0 30 29" fill="none" xmlns="http://www.w3.org/2000/svg">
<path d="M7 27.833V3.83301C7 3.12601 7.28003 2.448 7.78003 1.948C8.28003 1.447 8.96004 1.16699 9.67004 1.16699H20.33C21.04 1.16699 21.72 1.447 22.22 1.948C22.72 2.448 23 3.12601 23 3.83301V27.833M7 27.833H23M7 27.833H4.32996C3.62996 27.833 2.94995 27.552 2.44995 27.052C1.94995 26.552 1.67004 25.874 1.67004 25.167V17.167C1.67004 16.459 1.94995 15.781 2.44995 15.281C2.94995 14.781 3.62996 14.5 4.32996 14.5H7M23 27.833H25.67C26.37 27.833 27.05 27.552 27.55 27.052C28.05 26.552 28.33 25.874 28.33 25.167V13.167C28.33 12.459 28.05 11.781 27.55 11.281C27.05 10.781 26.37 10.5 25.67 10.5H23M12.33 6.5H17.67M12.33 11.833H17.67M12.33 17.167H17.67M12.33 22.5H17.67" stroke="#FDD261" stroke-width="2" stroke-linecap="round" stroke-linejoin="round"/>
</svg>
