<svg width="32" height="32" viewBox="0 0 32 32" fill="none" xmlns="http://www.w3.org/2000/svg">
<g filter="url(#filter0_d_81_3)">
<mask id="mask0_81_3" style="mask-type:luminance" maskUnits="userSpaceOnUse" x="4" y="0" width="24" height="24">
<path d="M28 0H4V24H28V0Z" fill="white"/>
</mask>
<g mask="url(#mask0_81_3)">
<path d="M16 15C16.32 15 16.62 15.1301 16.85 15.3501C17.07 15.5801 17.2 15.88 17.2 16.2C17.2 16.52 17.07 16.82 16.85 17.05C16.62 17.27 16.32 17.3999 16 17.3999C15.68 17.3999 15.38 17.27 15.15 17.05C14.93 16.82 14.8 16.52 14.8 16.2C14.8 15.88 14.93 15.5801 15.15 15.3501C15.38 15.1301 15.68 15 16 15ZM16 10.8C16.32 10.8 16.62 10.9299 16.85 11.1499C17.07 11.3799 17.2 11.68 17.2 12C17.2 12.32 17.07 12.6201 16.85 12.8501C16.62 13.0701 16.32 13.2 16 13.2C15.68 13.2 15.38 13.0701 15.15 12.8501C14.93 12.6201 14.8 12.32 14.8 12C14.8 11.68 14.93 11.3799 15.15 11.1499C15.38 10.9299 15.68 10.8 16 10.8ZM16 6.6001C16.32 6.6001 16.62 6.72995 16.85 6.94995C17.07 7.17995 17.2 7.48005 17.2 7.80005C17.2 8.12005 17.07 8.4199 16.85 8.6499C16.62 8.8699 16.32 9 16 9C15.68 9 15.38 8.8699 15.15 8.6499C14.93 8.4199 14.8 8.12005 14.8 7.80005C14.8 7.48005 14.93 7.17995 15.15 6.94995C15.38 6.72995 15.68 6.6001 16 6.6001Z" fill="#E5E7EB"/>
<path d="M16 23.25C22.2132 23.25 27.25 18.2132 27.25 12C27.25 5.7868 22.2132 0.75 16 0.75C9.7868 0.75 4.75 5.7868 4.75 12C4.75 18.2132 9.7868 23.25 16 23.25Z" stroke="#E5E7EB" stroke-width="1.5"/>
</g>
</g>
<defs>
<filter id="filter0_d_81_3" x="0" y="0" width="32" height="32" filterUnits="userSpaceOnUse" color-interpolation-filters="sRGB">
<feFlood flood-opacity="0" result="BackgroundImageFix"/>
<feColorMatrix in="SourceAlpha" type="matrix" values="0 0 0 0 0 0 0 0 0 0 0 0 0 0 0 0 0 0 127 0" result="hardAlpha"/>
<feOffset dy="4"/>
<feGaussianBlur stdDeviation="2"/>
<feComposite in2="hardAlpha" operator="out"/>
<feColorMatrix type="matrix" values="0 0 0 0 0 0 0 0 0 0 0 0 0 0 0 0 0 0 0.25 0"/>
<feBlend mode="normal" in2="BackgroundImageFix" result="effect1_dropShadow_81_3"/>
<feBlend mode="normal" in="SourceGraphic" in2="effect1_dropShadow_81_3" result="shape"/>
</filter>
</defs>
</svg>
