<svg width="22" height="20" viewBox="0 0 22 20" fill="none" xmlns="http://www.w3.org/2000/svg">
<path d="M17 19C17 16.878 16.157 14.843 14.657 13.343C13.157 11.843 11.122 11 9 11C6.878 11 4.84299 11.843 3.34299 13.343C1.84299 14.843 1 16.878 1 19" stroke="currentColor" stroke-width="2" stroke-linecap="round" stroke-linejoin="round"/>
<path d="M9 11C11.761 11 14 8.761 14 6C14 3.239 11.761 1 9 1C6.239 1 4 3.239 4 6C4 8.761 6.239 11 9 11Z" stroke="currentColor" stroke-width="2" stroke-linecap="round" stroke-linejoin="round"/>
<path d="M21 18C21 14.63 19 11.5 17 9.99995C17.657 9.50695 18.183 8.85895 18.53 8.11395C18.878 7.36995 19.036 6.55095 18.992 5.72995C18.947 4.90895 18.701 4.11195 18.275 3.40895C17.849 2.70695 17.257 2.11895 16.55 1.69995" stroke="currentColor" stroke-width="2" stroke-linecap="round" stroke-linejoin="round"/>
</svg>
