<svg width="23" height="23" viewBox="0 0 23 23" fill="none" xmlns="http://www.w3.org/2000/svg">
<path d="M1.58997 17.4139C1.20997 17.7889 1 18.2979 1 18.8279V20.9999C1 21.2649 1.11004 21.5199 1.29004 21.7069C1.48004 21.8949 1.73 21.9999 2 21.9999H5C5.27 21.9999 5.51996 21.8949 5.70996 21.7069C5.88996 21.5199 6 21.2649 6 20.9999V19.9999C6 19.7349 6.11004 19.4809 6.29004 19.2929C6.48004 19.1059 6.73 18.9999 7 18.9999H8C8.27 18.9999 8.51996 18.8949 8.70996 18.7069C8.88996 18.5199 9 18.2649 9 17.9999V16.9999C9 16.7349 9.11004 16.4809 9.29004 16.2929C9.48004 16.1059 9.73 15.9999 10 15.9999H10.17C10.7 15.9999 11.21 15.7889 11.59 15.4139L12.4 14.5999C13.79 15.0839 15.2999 15.0819 16.6899 14.5949C18.0799 14.1069 19.26 13.1629 20.04 11.9159C20.83 10.6699 21.16 9.19392 21 7.73191C20.83 6.26891 20.18 4.90592 19.13 3.86592C18.09 2.82492 16.73 2.16792 15.27 2.00292C13.81 1.83792 12.33 2.17392 11.08 2.95592C9.83996 3.73792 8.89003 4.91993 8.41003 6.30893C7.92003 7.69693 7.92002 9.20993 8.40002 10.5999L1.58997 17.4139Z" stroke="currentColor" stroke-width="2" stroke-linecap="round" stroke-linejoin="round"/>
<path d="M15.5 8C15.78 8 16 7.776 16 7.5C16 7.224 15.78 7 15.5 7C15.22 7 15 7.224 15 7.5C15 7.776 15.22 8 15.5 8Z" fill="#1E40AF" stroke="currentColor" stroke-width="2" stroke-linecap="round" stroke-linejoin="round"/>
</svg>
