<svg width="28" height="30" viewBox="0 0 28 30" fill="none" xmlns="http://www.w3.org/2000/svg">
<g filter="url(#filter0_d_36_6)">
<path d="M14 12V1L22 5L14 9" stroke="currentColor" stroke-width="2" stroke-linecap="round" stroke-linejoin="round"/>
<path d="M22.561 9.22212C23.093 10.8621 23.143 12.6211 22.704 14.2881C22.266 15.9561 21.357 17.4631 20.087 18.6291C18.817 19.7951 17.239 20.5721 15.54 20.8671C13.841 21.1621 12.093 20.9631 10.504 20.2931C8.91504 19.6231 7.55203 18.5111 6.57703 17.0891C5.60203 15.6671 5.05604 13.9951 5.00404 12.2711C4.95204 10.5481 5.396 8.84513 6.284 7.36713C7.171 5.88913 8.46499 4.69613 10.011 3.93213" stroke="currentColor" stroke-width="2" stroke-linecap="round" stroke-linejoin="round"/>
<path d="M10.001 8.99695C9.49999 9.66395 9.17402 10.446 9.05202 11.271C8.93102 12.097 9.01801 12.939 9.30501 13.723C9.59201 14.506 10.071 15.205 10.698 15.755C11.324 16.306 12.079 16.692 12.892 16.876C13.706 17.061 14.553 17.039 15.356 16.813C16.159 16.586 16.892 16.163 17.49 15.58C18.087 14.998 18.529 14.275 18.776 13.478C19.022 12.681 19.065 11.835 18.901 11.017" stroke="currentColor" stroke-width="2" stroke-linecap="round" stroke-linejoin="round"/>
</g>
<defs>
<filter id="filter0_d_36_6" x="-6.10352e-05" y="0" width="28.0003" height="29.9999" filterUnits="userSpaceOnUse" color-interpolation-filters="sRGB">
<feFlood flood-opacity="0" result="BackgroundImageFix"/>
<feColorMatrix in="SourceAlpha" type="matrix" values="0 0 0 0 0 0 0 0 0 0 0 0 0 0 0 0 0 0 127 0" result="hardAlpha"/>
<feOffset dy="4"/>
<feGaussianBlur stdDeviation="2"/>
<feComposite in2="hardAlpha" operator="out"/>
<feColorMatrix type="matrix" values="0 0 0 0 0 0 0 0 0 0 0 0 0 0 0 0 0 0 0.25 0"/>
<feBlend mode="normal" in2="BackgroundImageFix" result="effect1_dropShadow_36_6"/>
<feBlend mode="normal" in="SourceGraphic" in2="effect1_dropShadow_36_6" result="shape"/>
</filter>
</defs>
</svg>
